<?xml version="1.0" encoding="UTF-8"?>
<svg width="24px" height="24px" viewBox="0 0 24 24" version="1.1" xmlns="http://www.w3.org/2000/svg" xmlns:xlink="http://www.w3.org/1999/xlink">
    <title>icon/action/pop-up-window/default@svg</title>
    <defs>
        <path d="M23.5,9.99999999 L23.5,19 C23.5,20.65 22.15,22 20.5,22 L20.5,22 L11.5,22 C9.84999999,22 8.49999999,20.65 8.49999999,19 L8.49999999,19 L8.49999999,9.99999999 L23.5,9.99999999 Z M22,13 L9.99999999,13 L9.99999999,19 C9.99999999,19.85 10.65,20.5 11.5,20.5 L11.5,20.5 L20.5,20.5 C21.35,20.5 22,19.85 22,19 L22,19 L22,13 Z M18.5,1.99999996 L18.5,8.49999996 L17,8.49999996 L17,4.99999996 L1.99999995,4.99999996 L1.99999995,14.5 C1.99999995,15.35 2.64999996,16 3.49999995,16 L3.49999995,16 L6.99999995,16 L6.99999995,17.5 L3.49999995,17.5 C1.84999996,17.5 0.499999952,16.15 0.499999952,14.5 L0.499999952,14.5 L0.499999952,1.99999996 L18.5,1.99999996 Z M6.49999998,2.89999996 C6.14999998,2.89999996 5.89999997,3.14999996 5.89999997,3.49999996 C5.89999997,3.84999997 6.14999998,4.14999997 6.49999998,4.14999997 C6.84999998,4.14999997 7.09999998,3.79999997 7.09999998,3.49999996 C7.09999998,3.19999996 6.84999998,2.89999996 6.49999998,2.89999996 Z M4.49999997,2.89999996 C4.14999997,2.89999996 3.89999997,3.14999996 3.89999997,3.49999996 C3.89999997,3.84999997 4.14999997,4.14999997 4.49999997,4.14999997 C4.84999997,4.14999997 5.09999997,3.79999997 5.09999997,3.49999996 C5.09999997,3.19999996 4.84999997,2.89999996 4.49999997,2.89999996 Z M2.49999996,2.89999996 C2.14999996,2.89999996 1.89999996,3.14999996 1.89999996,3.49999996 C1.89999996,3.84999997 2.14999996,4.14999997 2.49999996,4.14999997 C2.84999996,4.14999997 3.09999996,3.79999997 3.09999996,3.49999996 C3.09999996,3.19999996 2.84999996,2.89999996 2.49999996,2.89999996 Z" id="path-1"></path>
    </defs>
    <g id="icon/action/pop-up-window/default" stroke="none" stroke-width="1" fill="none" fill-rule="evenodd">
        <mask id="mask-2" fill="white">
            <use xlink:href="#path-1"></use>
        </mask>
        <use id="Combined-Shape" fill="#262626" xlink:href="#path-1"></use>
    </g>
</svg>